<svg id="d56a83daff855ba754852b04aa0f3926" xmlns="http://www.w3.org/2000/svg" width="24" height="24" viewBox="0 0 24 24">
  <path id="Path_107" data-name="Path 107" d="M142.166,109.235a10.368,10.368,0,0,0-.255-2.474H130.55v4.49h6.668a5.913,5.913,0,0,1-2.474,3.926l-.023.15,3.592,2.783.249.025a11.83,11.83,0,0,0,3.6-8.9" transform="translate(-118.166 -97.065)" fill="#4285f4"/>
  <path id="Path_108" data-name="Path 108" d="M24.734,166.077a12.218,12.218,0,0,0,8.272-2.95l-3.752-2.951a8.3,8.3,0,0,1-4.52,1.222,7.284,7.284,0,0,1-6.883-5.028l-.142.012-3.735,2.89-.049.136a12.091,12.091,0,0,0,10.809,6.668" transform="translate(-12.634 -142.077)" fill="#34a853"/>
  <path id="Path_109" data-name="Path 109" d="M5.216,79.2a7.449,7.449,0,0,1-.4-2.393,7.827,7.827,0,0,1,.39-2.393l-.007-.16L1.414,71.312l-.124.059a12.074,12.074,0,0,0,0,10.863L5.216,79.2" transform="translate(0 -64.802)" fill="#fbbc05"/>
  <path id="Path_110" data-name="Path 110" d="M24.9,4.678a6.861,6.861,0,0,1,4.749,1.8l3.466-3.334A11.9,11.9,0,0,0,24.9,0,12.2,12.2,0,0,0,13.915,6.547L17.851,9.68a7.448,7.448,0,0,1,7.046-5" transform="translate(-12.634)" fill="#eb4335"/>
</svg>
