<svg xmlns="http://www.w3.org/2000/svg" xmlns:xlink="http://www.w3.org/1999/xlink" width="161.001" height="91" viewBox="0 0 161.001 91">
  <defs>
    <linearGradient id="linear-gradient" x1="0.5" x2="0.5" y2="1" gradientUnits="objectBoundingBox">
      <stop offset="0" stop-color="#fff"/>
      <stop offset="0.389" stop-color="#bfbfbf"/>
      <stop offset="1" stop-color="#fff"/>
    </linearGradient>
    <filter id="Union_5">
      <feOffset dy="-3" input="SourceAlpha"/>
      <feGaussianBlur stdDeviation="1" result="blur"/>
      <feFlood flood-color="#fff" result="color"/>
      <feComposite operator="out" in="SourceGraphic" in2="blur"/>
      <feComposite operator="in" in="color"/>
      <feComposite operator="in" in2="SourceGraphic"/>
    </filter>
  </defs>
  <g data-type="innerShadowGroup">
    <path id="Union_5-2" data-name="Union 5" d="M149,90.74h-4.086a64.416,64.416,0,0,0-6.991-58.489A64.626,64.626,0,0,0,109.576,8.886a64.293,64.293,0,0,0-61.091,5.944A64.679,64.679,0,0,0,25.14,43.2a64.781,64.781,0,0,0-1.052,47.54H12a8,8,0,0,1-8-8v-27a8,8,0,0,1,8-8h7.134c.652-2.079,1.4-4.127,2.25-6.13a68.531,68.531,0,0,1,126.234,0c.846,2,1.6,4.051,2.25,6.13H157a8,8,0,0,1,8,8v27a8,8,0,0,1-8,8Z" transform="translate(-4 0.26)" fill="url(#linear-gradient)"/>
    <g transform="matrix(1, 0, 0, 1, 0, 0)" filter="url(#Union_5)">
      <path id="Union_5-3" data-name="Union 5" d="M149,90.74h-4.086a64.416,64.416,0,0,0-6.991-58.489A64.626,64.626,0,0,0,109.576,8.886a64.293,64.293,0,0,0-61.091,5.944A64.679,64.679,0,0,0,25.14,43.2a64.781,64.781,0,0,0-1.052,47.54H12a8,8,0,0,1-8-8v-27a8,8,0,0,1,8-8h7.134c.652-2.079,1.4-4.127,2.25-6.13a68.531,68.531,0,0,1,126.234,0c.846,2,1.6,4.051,2.25,6.13H157a8,8,0,0,1,8,8v27a8,8,0,0,1-8,8Z" transform="translate(-4 0.26)" fill="#fff"/>
    </g>
  </g>
</svg>
