<svg xmlns="http://www.w3.org/2000/svg" width="15" height="16" viewBox="0 0 15 16">
  <path id="_2ae66759f9bda47bb5a4c88130dd24db" data-name="2ae66759f9bda47bb5a4c88130dd24db" d="M5.238,15.019V12.572a1.127,1.127,0,0,1,1.124-1.131H8.631a1.121,1.121,0,0,1,.795.331,1.134,1.134,0,0,1,.329.8v2.446a.977.977,0,0,0,.281.693.966.966,0,0,0,.687.288h1.548a2.713,2.713,0,0,0,1.929-.8,2.746,2.746,0,0,0,.8-1.938V6.293a1.989,1.989,0,0,0-.707-1.522L9.027.541A2.421,2.421,0,0,0,5.91.6L.763,4.772A1.988,1.988,0,0,0,0,6.293v6.962A2.737,2.737,0,0,0,2.729,16H4.241a.978.978,0,0,0,.975-.974Z" fill="#fff"/>
</svg>
