<svg xmlns="http://www.w3.org/2000/svg" width="14" height="14" viewBox="0 0 14 14">
  <path id="af2da8f3726c5aa836b9ea2eeab70e0c" d="M12.738,4.422h0a.84.84,0,1,0,.84.84A.84.84,0,0,0,12.738,4.422Zm3.22,1.694a5.313,5.313,0,0,0-.322-1.7,3.458,3.458,0,0,0-.812-1.239,3.29,3.29,0,0,0-1.239-.805,5.11,5.11,0,0,0-1.7-.329C11.142,2,10.9,2,9,2s-2.142,0-2.884.042a5.11,5.11,0,0,0-1.7.329,3.346,3.346,0,0,0-1.239.8,3.29,3.29,0,0,0-.805,1.239,5.11,5.11,0,0,0-.329,1.7C2,6.858,2,7.1,2,9s0,2.142.042,2.884a5.11,5.11,0,0,0,.329,1.7,3.29,3.29,0,0,0,.805,1.239,3.346,3.346,0,0,0,1.239.805,5.11,5.11,0,0,0,1.7.329C6.858,16,7.1,16,9,16s2.142,0,2.884-.042a5.11,5.11,0,0,0,1.7-.329,3.29,3.29,0,0,0,1.239-.805,3.4,3.4,0,0,0,.812-1.239,5.313,5.313,0,0,0,.322-1.7c0-.742.042-.98.042-2.884S16,6.858,15.958,6.116ZM14.7,11.8a3.927,3.927,0,0,1-.238,1.3,2.142,2.142,0,0,1-.525.805,2.233,2.233,0,0,1-.805.525,3.927,3.927,0,0,1-1.3.238c-.7.035-.959.042-2.8.042s-2.1,0-2.8-.042a4.011,4.011,0,0,1-1.358-.21,2.289,2.289,0,0,1-.77-.525,2.1,2.1,0,0,1-.518-.805A3.878,3.878,0,0,1,3.3,11.8c0-.7-.042-.959-.042-2.8s0-2.1.042-2.8a3.878,3.878,0,0,1,.245-1.33A2.1,2.1,0,0,1,4.1,4.1a2.2,2.2,0,0,1,.77-.56A4.011,4.011,0,0,1,6.2,3.3c.7,0,.959-.042,2.8-.042s2.1,0,2.8.042a3.927,3.927,0,0,1,1.3.238,2.142,2.142,0,0,1,.833.56,2.142,2.142,0,0,1,.525.77A3.927,3.927,0,0,1,14.7,6.2c.035.7.042.959.042,2.8S14.733,11.1,14.7,11.8ZM9,5.409a3.584,3.584,0,1,0,2.546,1.047A3.591,3.591,0,0,0,9,5.409Zm0,5.922A2.331,2.331,0,1,1,11.331,9,2.331,2.331,0,0,1,9,11.331Z" transform="translate(-2 -2)" fill="#fff"/>
</svg>
