<svg xmlns="http://www.w3.org/2000/svg" width="13.651" height="14" viewBox="0 0 13.651 14">
  <path id="_icons" d="M13.263,5.721c.152.076.228.227.379.3l.152.151L12.428,6.4a.784.784,0,0,0-.607.907.738.738,0,0,0,.758.6h.152l3.185-.6a.784.784,0,0,0,.607-.907l-.607-3.1a.773.773,0,0,0-1.517.3l.228,1.285h0a2.831,2.831,0,0,0-.531-.454h-.076c-.076-.076-.152-.151-.228-.151a3.21,3.21,0,0,0-.531-.378h0c-.228-.151-.455-.227-.683-.378H12.5c-.076-.076-.228-.076-.379-.151-.3-.076-.607-.151-.834-.227-.152,0-.3-.076-.455-.076h-.91a6.805,6.805,0,1,0,6.826,6.805.758.758,0,0,0-1.517,0A5.309,5.309,0,1,1,9.926,4.587h.531a.685.685,0,0,1,.379.076c.152,0,.228.076.379.076.076,0,.152.076.228.076a4.086,4.086,0,0,1,1.517.756c.076.076.152.076.228.151C13.187,5.57,13.263,5.645,13.263,5.721Z" transform="translate(-3.1 -2.685)" fill="#cecece"/>
</svg>
