<svg xmlns="http://www.w3.org/2000/svg" width="14.626" height="13" viewBox="0 0 14.626 13">
  <path id="XMLID_799_" d="M16.259,13.611c-.748,0-2.619,1.878-3.991,3.232-2.067,2.022-4.026,3.99-5.594,3.99H5.713a.722.722,0,0,1,0-1.444h.962c1,0,2.993-2.022,4.6-3.593,1.96-1.914,3.652-3.629,4.988-3.629h.926l-.98-.957a.684.684,0,0,1,0-.993.7.7,0,0,1,1.015,0l2.191,2.221a.718.718,0,0,1,.214.506.66.66,0,0,1-.214.506L17.2,15.669a.679.679,0,0,1-.5.2.7.7,0,0,1-.5-.217.726.726,0,0,1,0-1.029l.98-1.011h-.926Zm.944,3.719a.7.7,0,0,0-1.015,0,.748.748,0,0,0,0,1.047l.98,1.011h-.926c-.588,0-1.568-.885-2.53-1.787a.719.719,0,0,0-1.015.018.766.766,0,0,0,.036,1.047c1.5,1.39,2.494,2.167,3.527,2.167h.926l-.98.957a.7.7,0,0,0,0,1.011.679.679,0,0,0,.5.2.7.7,0,0,0,.5-.217l2.191-2.221a.718.718,0,0,0,.214-.506.66.66,0,0,0-.214-.506ZM5.713,13.611h.962c.748,0,1.871.975,2.761,1.787a.716.716,0,0,0,.481.2.7.7,0,0,0,.534-.235.75.75,0,0,0-.053-1.047c-1.39-1.282-2.565-2.167-3.723-2.167H5.713A.72.72,0,0,0,5,12.871.735.735,0,0,0,5.713,13.611Z" transform="translate(-5 -10)" fill="#cecece"/>
</svg>
