<svg xmlns="http://www.w3.org/2000/svg" xmlns:xlink="http://www.w3.org/1999/xlink" width="148" height="136" viewBox="0 0 148 136">
  <defs>
    <linearGradient id="linear-gradient" x1="0.105" y1="-0.056" x2="0.964" y2="1.177" gradientUnits="objectBoundingBox">
      <stop offset="0" stop-color="#ebebeb"/>
      <stop offset="0.468" stop-color="#656565"/>
      <stop offset="0.67" stop-color="#434343"/>
      <stop offset="1" stop-color="#fff"/>
    </linearGradient>
    <filter id="a355e651f93bcd787d0e9c6cff35121c" x="0" y="0" width="148" height="136" filterUnits="userSpaceOnUse">
      <feOffset dy="3" input="SourceAlpha"/>
      <feGaussianBlur stdDeviation="15" result="blur"/>
      <feFlood flood-color="#299ff5" flood-opacity="0.502"/>
      <feComposite operator="in" in2="blur"/>
      <feComposite in="SourceGraphic"/>
    </filter>
  </defs>
  <g transform="matrix(1, 0, 0, 1, 0, 0)" filter="url(#a355e651f93bcd787d0e9c6cff35121c)">
    <path id="a355e651f93bcd787d0e9c6cff35121c-2" data-name="a355e651f93bcd787d0e9c6cff35121c" d="M53.4,4.3A3.651,3.651,0,0,0,49.891,2H8.127A3.645,3.645,0,0,0,4.615,4.3L4.032,7.75H53.983L53.4,4.3Zm2.923,6.328H1.69a1.691,1.691,0,0,0-1.245.546,1.658,1.658,0,0,0-.43,1.28L2.694,46a2.227,2.227,0,0,0,2.223,2H53.1a2.227,2.227,0,0,0,2.223-2L58,12.451a1.658,1.658,0,0,0-.43-1.28,1.691,1.691,0,0,0-1.245-.546ZM34.645,32.248c-.371.762-.749.8-.586,0,.424-2.073.136-6.523-3.027-7.018V34.7a4.317,4.317,0,0,1-3.3,4.393c-2.328.736-4.931-.032-5.538-1.685s.757-3.668,3.053-4.5a5.864,5.864,0,0,1,3.77-.2V19.25h2.014C31.032,23.945,39.213,22.916,34.645,32.248Z" transform="translate(44.99 40)" fill="url(#linear-gradient)"/>
  </g>
</svg>
