<svg id="Page-1" xmlns="http://www.w3.org/2000/svg" width="48.754" height="49" viewBox="0 0 48.754 49">
  <g id="Icons" transform="translate(0)">
    <path id="Play-round-2" d="M340.872,256a24.5,24.5,0,1,0,24.382,24.5A24.464,24.464,0,0,0,340.872,256Zm0,47.242A22.742,22.742,0,1,1,363.505,280.5,22.7,22.7,0,0,1,340.872,303.242Zm10.99-25.059-15.26-8.514a2.6,2.6,0,0,0-4.071,2.41v16.844c0,1.721.984,2.879,2.445,2.879a3.349,3.349,0,0,0,1.629-.466l15.257-8.518a2.484,2.484,0,0,0,0-4.636Zm-.85,3.1L335.758,289.8a1.68,1.68,0,0,1-.78.245c-.6,0-.7-.7-.7-1.121V272.079c0-.418.093-1.118.7-1.118a1.688,1.688,0,0,1,.78.245l15.254,8.514c.426.239.693.539.693.783S351.436,281.042,351.012,281.28Z" transform="translate(-316.5 -256)" fill="#fff" fill-rule="evenodd"/>
  </g>
</svg>
