<svg xmlns="http://www.w3.org/2000/svg" width="1368.33" height="37.856" viewBox="0 0 1368.33 37.856">
  <g id="notalar" transform="translate(1 -328.5)">
    <path id="Line_8" data-name="Line 8" d="M1366,.5H0v-1H1366Z" transform="translate(0.5 357.5)" fill="#555"/>
    <path id="Line_9" data-name="Line 9" d="M1366,.5H0v-1H1366Z" transform="translate(0.5 365.5)" fill="#3c3c3c"/>
    <path id="Line_6" data-name="Line 6" d="M1366,.5H0v-1H1366Z" transform="translate(0.5 341.5)" fill="#ddd"/>
    <path id="Line_5" data-name="Line 5" d="M1366,.5H0v-1H1366Z" transform="translate(0.5 333.5)" fill="#fff"/>
    <path id="Line_7" data-name="Line 7" d="M1366,.5H0v-1H1366Z" transform="translate(0.5 349.5)" fill="#818181"/>
    <g id="Group_128" data-name="Group 128" transform="translate(-22.335)">
      <g id="Group_126" data-name="Group 126" transform="translate(-6914.665 -10423.572)">
        <ellipse id="Ellipse_76" data-name="Ellipse 76" cx="2.5" cy="4" rx="2.5" ry="4" transform="translate(6940 10775.786) rotate(30)" fill="#555"/>
        <ellipse id="Ellipse_77" data-name="Ellipse 77" cx="2.5" cy="4" rx="2.5" ry="4" transform="translate(6965 10780.5) rotate(30)" fill="#3c3c3c"/>
        <ellipse id="Ellipse_80" data-name="Ellipse 80" cx="2.5" cy="4" rx="2.5" ry="4" transform="translate(7056 10756.499) rotate(30)" fill="#ddd"/>
        <ellipse id="Ellipse_92" data-name="Ellipse 92" cx="2.5" cy="4" rx="2.5" ry="4" transform="translate(7405 10756.572) rotate(30)" fill="#ddd"/>
        <ellipse id="Ellipse_98" data-name="Ellipse 98" cx="2.5" cy="4" rx="2.5" ry="4" transform="translate(7571 10756.572) rotate(30)" fill="#ddd"/>
        <ellipse id="Ellipse_99" data-name="Ellipse 99" cx="2.5" cy="4" rx="2.5" ry="4" transform="translate(7595 10752.072) rotate(30)" fill="#fff"/>
        <ellipse id="Ellipse_96" data-name="Ellipse 96" cx="2.5" cy="4" rx="2.5" ry="4" transform="translate(7522 10756.572) rotate(30)" fill="#ddd"/>
        <ellipse id="Ellipse_88" data-name="Ellipse 88" cx="2.5" cy="4" rx="2.5" ry="4" transform="translate(7289 10756.572) rotate(30)" fill="#ddd"/>
        <ellipse id="Ellipse_81" data-name="Ellipse 81" cx="2.5" cy="4" rx="2.5" ry="4" transform="translate(7080 10760.072) rotate(30)" fill="#ddd"/>
        <ellipse id="Ellipse_93" data-name="Ellipse 93" cx="2.5" cy="4" rx="2.5" ry="4" transform="translate(7429 10759.499) rotate(30)" fill="#ddd"/>
        <ellipse id="Ellipse_97" data-name="Ellipse 97" cx="2.5" cy="4" rx="2.5" ry="4" transform="translate(7546 10760.072) rotate(30)" fill="#ddd"/>
        <ellipse id="Ellipse_83" data-name="Ellipse 83" cx="2.5" cy="4" rx="2.5" ry="4" transform="translate(7129 10760.072) rotate(30)" fill="#ddd"/>
        <ellipse id="Ellipse_95" data-name="Ellipse 95" cx="2.5" cy="4" rx="2.5" ry="4" transform="translate(7478 10760.072) rotate(30)" fill="#ddd"/>
        <ellipse id="Ellipse_87" data-name="Ellipse 87" cx="2.5" cy="4" rx="2.5" ry="4" transform="translate(7246 10759.358) rotate(30)" fill="#ddd"/>
        <ellipse id="Ellipse_89" data-name="Ellipse 89" cx="2.5" cy="4" rx="2.5" ry="4" transform="translate(7314 10760.072) rotate(30)" fill="#ddd"/>
        <ellipse id="Ellipse_91" data-name="Ellipse 91" cx="2.5" cy="4" rx="2.5" ry="4" transform="translate(7362 10760.072) rotate(30)" fill="#ddd"/>
        <ellipse id="Ellipse_82" data-name="Ellipse 82" cx="2.5" cy="4" rx="2.5" ry="4" transform="translate(7105 10764.213) rotate(30)" fill="#818181"/>
        <ellipse id="Ellipse_94" data-name="Ellipse 94" cx="2.5" cy="4" rx="2.5" ry="4" transform="translate(7454 10764.213) rotate(30)" fill="#818181"/>
        <ellipse id="Ellipse_84" data-name="Ellipse 84" cx="2.5" cy="4" rx="2.5" ry="4" transform="translate(7172 10764.072) rotate(30)" fill="#818181"/>
        <ellipse id="Ellipse_86" data-name="Ellipse 86" cx="2.5" cy="4" rx="2.5" ry="4" transform="translate(7222 10764.213) rotate(30)" fill="#818181"/>
        <ellipse id="Ellipse_90" data-name="Ellipse 90" cx="2.5" cy="4" rx="2.5" ry="4" transform="translate(7338 10764.5) rotate(30)" fill="#818181"/>
        <ellipse id="Ellipse_85" data-name="Ellipse 85" cx="2.5" cy="4" rx="2.5" ry="4" transform="translate(7197 10768.786) rotate(30)" fill="#818181"/>
        <ellipse id="Ellipse_78" data-name="Ellipse 78" cx="2.5" cy="4" rx="2.5" ry="4" transform="translate(6988 10764.572) rotate(30)" fill="#818181"/>
        <ellipse id="Ellipse_79" data-name="Ellipse 79" cx="2.5" cy="4" rx="2.5" ry="4" transform="translate(7013 10760.072) rotate(30)" fill="#ddd"/>
        <path id="Line_13" data-name="Line 13" d="M.5,31.572h-1V0h1Z" transform="translate(7037.5 10757.5)" fill="#707070"/>
        <path id="Line_14" data-name="Line 14" d="M.5,31.572h-1V0h1Z" transform="translate(7154.5 10757.5)" fill="#707070"/>
        <path id="Line_15" data-name="Line 15" d="M.5,31.572h-1V0h1Z" transform="translate(7270.5 10757.5)" fill="#707070"/>
        <path id="Line_16" data-name="Line 16" d="M.5,31.572h-1V0h1Z" transform="translate(7387.5 10757.5)" fill="#707070"/>
        <path id="Line_17" data-name="Line 17" d="M.5,32h-1V0h1Z" transform="translate(7503.5 10757.072)" fill="#707070"/>
        <path id="Line_18" data-name="Line 18" d="M.5,32h-1V0h1Z" transform="translate(7613.83 10757.072)" fill="#707070"/>
      </g>
      <g id="Group_127" data-name="Group 127" transform="translate(-6224.665 -10423.572)">
        <ellipse id="Ellipse_76-2" data-name="Ellipse 76" cx="2.5" cy="4" rx="2.5" ry="4" transform="translate(6940 10775.786) rotate(30)" fill="#555"/>
        <ellipse id="Ellipse_77-2" data-name="Ellipse 77" cx="2.5" cy="4" rx="2.5" ry="4" transform="translate(6965 10780.5) rotate(30)" fill="#3c3c3c"/>
        <ellipse id="Ellipse_80-2" data-name="Ellipse 80" cx="2.5" cy="4" rx="2.5" ry="4" transform="translate(7056 10756.499) rotate(30)" fill="#ddd"/>
        <ellipse id="Ellipse_92-2" data-name="Ellipse 92" cx="2.5" cy="4" rx="2.5" ry="4" transform="translate(7405 10756.572) rotate(30)" fill="#ddd"/>
        <ellipse id="Ellipse_98-2" data-name="Ellipse 98" cx="2.5" cy="4" rx="2.5" ry="4" transform="translate(7571 10756.572) rotate(30)" fill="#ddd"/>
        <ellipse id="Ellipse_99-2" data-name="Ellipse 99" cx="2.5" cy="4" rx="2.5" ry="4" transform="translate(7595 10752.072) rotate(30)" fill="#fff"/>
        <ellipse id="Ellipse_96-2" data-name="Ellipse 96" cx="2.5" cy="4" rx="2.5" ry="4" transform="translate(7522 10756.572) rotate(30)" fill="#ddd"/>
        <ellipse id="Ellipse_88-2" data-name="Ellipse 88" cx="2.5" cy="4" rx="2.5" ry="4" transform="translate(7289 10756.572) rotate(30)" fill="#ddd"/>
        <ellipse id="Ellipse_81-2" data-name="Ellipse 81" cx="2.5" cy="4" rx="2.5" ry="4" transform="translate(7080 10760.072) rotate(30)" fill="#ddd"/>
        <ellipse id="Ellipse_93-2" data-name="Ellipse 93" cx="2.5" cy="4" rx="2.5" ry="4" transform="translate(7429 10759.499) rotate(30)" fill="#ddd"/>
        <ellipse id="Ellipse_97-2" data-name="Ellipse 97" cx="2.5" cy="4" rx="2.5" ry="4" transform="translate(7546 10760.072) rotate(30)" fill="#ddd"/>
        <ellipse id="Ellipse_83-2" data-name="Ellipse 83" cx="2.5" cy="4" rx="2.5" ry="4" transform="translate(7129 10760.072) rotate(30)" fill="#ddd"/>
        <ellipse id="Ellipse_95-2" data-name="Ellipse 95" cx="2.5" cy="4" rx="2.5" ry="4" transform="translate(7478 10760.072) rotate(30)" fill="#ddd"/>
        <ellipse id="Ellipse_87-2" data-name="Ellipse 87" cx="2.5" cy="4" rx="2.5" ry="4" transform="translate(7246 10759.358) rotate(30)" fill="#ddd"/>
        <ellipse id="Ellipse_89-2" data-name="Ellipse 89" cx="2.5" cy="4" rx="2.5" ry="4" transform="translate(7314 10760.072) rotate(30)" fill="#ddd"/>
        <ellipse id="Ellipse_91-2" data-name="Ellipse 91" cx="2.5" cy="4" rx="2.5" ry="4" transform="translate(7362 10760.072) rotate(30)" fill="#ddd"/>
        <ellipse id="Ellipse_82-2" data-name="Ellipse 82" cx="2.5" cy="4" rx="2.5" ry="4" transform="translate(7105 10764.213) rotate(30)" fill="#818181"/>
        <ellipse id="Ellipse_94-2" data-name="Ellipse 94" cx="2.5" cy="4" rx="2.5" ry="4" transform="translate(7454 10764.213) rotate(30)" fill="#818181"/>
        <ellipse id="Ellipse_84-2" data-name="Ellipse 84" cx="2.5" cy="4" rx="2.5" ry="4" transform="translate(7172 10764.072) rotate(30)" fill="#818181"/>
        <ellipse id="Ellipse_86-2" data-name="Ellipse 86" cx="2.5" cy="4" rx="2.5" ry="4" transform="translate(7222 10764.213) rotate(30)" fill="#818181"/>
        <ellipse id="Ellipse_90-2" data-name="Ellipse 90" cx="2.5" cy="4" rx="2.5" ry="4" transform="translate(7338 10764.5) rotate(30)" fill="#818181"/>
        <ellipse id="Ellipse_85-2" data-name="Ellipse 85" cx="2.5" cy="4" rx="2.5" ry="4" transform="translate(7197 10768.786) rotate(30)" fill="#818181"/>
        <ellipse id="Ellipse_78-2" data-name="Ellipse 78" cx="2.5" cy="4" rx="2.5" ry="4" transform="translate(6988 10764.572) rotate(30)" fill="#818181"/>
        <ellipse id="Ellipse_79-2" data-name="Ellipse 79" cx="2.5" cy="4" rx="2.5" ry="4" transform="translate(7013 10760.072) rotate(30)" fill="#ddd"/>
        <path id="Line_13-2" data-name="Line 13" d="M.5,31.572h-1V0h1Z" transform="translate(7037.5 10757.5)" fill="#707070"/>
        <path id="Line_14-2" data-name="Line 14" d="M.5,31.572h-1V0h1Z" transform="translate(7154.5 10757.5)" fill="#707070"/>
        <path id="Line_15-2" data-name="Line 15" d="M.5,31.572h-1V0h1Z" transform="translate(7270.5 10757.5)" fill="#707070"/>
        <path id="Line_16-2" data-name="Line 16" d="M.5,31.572h-1V0h1Z" transform="translate(7387.5 10757.5)" fill="#707070"/>
        <path id="Line_17-2" data-name="Line 17" d="M.5,32h-1V0h1Z" transform="translate(7503.5 10757.072)" fill="#707070"/>
        <path id="Line_18-2" data-name="Line 18" d="M.5,32h-1V0h1Z" transform="translate(7613.83 10757.072)" fill="#707070"/>
      </g>
    </g>
  </g>
</svg>
