<svg xmlns="http://www.w3.org/2000/svg" width="63" height="63" viewBox="0 0 63 63">
  <g id="Group_457" data-name="Group 457" transform="translate(0 0.561)">
    <path id="Subtraction_2" data-name="Subtraction 2" d="M31.5,63A31.49,31.49,0,0,1,9.226,9.227a31.5,31.5,0,1,1,34.535,51.3A31.293,31.293,0,0,1,31.5,63Zm-6-42a1.856,1.856,0,0,0-1.871,1.835V41.479a1.875,1.875,0,0,0,2.822,1.574L42.4,33.729a1.813,1.813,0,0,0,0-3.147L26.447,21.264A1.9,1.9,0,0,0,25.5,21Z" transform="translate(0 -0.561)" fill="#fff"/>
  </g>
</svg>
