<svg xmlns="http://www.w3.org/2000/svg" width="17" height="17" viewBox="0 0 17 17">
  <path id="Path_21" data-name="Path 21" d="M16.792,15.816,13.87,12.959h0l-.068-.1a.688.688,0,0,0-.966,0h0a6.9,6.9,0,0,1-8.941.289,6.527,6.527,0,0,1-1.45-8.631A6.864,6.864,0,0,1,11.01,1.991a6.58,6.58,0,0,1,3.667,7.978.662.662,0,0,0,.154.656.7.7,0,0,0,.658.2.682.682,0,0,0,.5-.459h0A7.934,7.934,0,0,0,11.744.8,8.291,8.291,0,0,0,1.436,3.473,7.867,7.867,0,0,0,2.592,13.838a8.321,8.321,0,0,0,10.655.438L15.834,16.8a.7.7,0,0,0,.966,0,.666.666,0,0,0,0-.952h0Z" fill="#838383"/>
</svg>
