<svg id="Group_38" data-name="Group 38" xmlns="http://www.w3.org/2000/svg" width="21.452" height="22" viewBox="0 0 21.452 22">
  <path id="Path_29" data-name="Path 29" d="M0,0H21.452V22H0Z" fill="none"/>
  <path id="Path_30" data-name="Path 30" d="M14.385,21.625a1.286,1.286,0,0,1-.741-.236l-.009-.007L5,15.107V7.521l8.635-6.276A1.284,1.284,0,0,1,15,1.158a1.423,1.423,0,0,1,.731,1.263V20.206A1.424,1.424,0,0,1,15,21.469a1.283,1.283,0,0,1-.611.155Zm.017-1.37L14.385,2.421,6.341,8.233V14.4L14.4,20.255Zm3.334-6.878a.688.688,0,0,1,0-1.375.688.688,0,0,0,0-1.375.688.688,0,0,1,0-1.375,2.063,2.063,0,0,1,0,4.125Z" transform="translate(-1.648 -0.314)" fill="#fff"/>
  <path id="Path_31" data-name="Path 31" d="M16.419,18.625a.688.688,0,0,1,0-1.375,3.439,3.439,0,0,0,0-6.875.688.688,0,0,1,0-1.375,4.814,4.814,0,0,1,0,9.625Zm-11.4-.687H2.341A1.36,1.36,0,0,1,1,16.563v-5.5A1.36,1.36,0,0,1,2.341,9.688H5.022ZM2.341,11.063v5.5H3.681v-5.5Z" transform="translate(-0.33 -2.813)" fill="#fff"/>
</svg>
