<svg xmlns="http://www.w3.org/2000/svg" width="14" height="14" viewBox="0 0 14 14">
  <path id="_3eef61a40e6d9df778d55e3d1e604847" data-name="3eef61a40e6d9df778d55e3d1e604847" d="M8.2,1.2a7,7,0,1,0,7,7,7,7,0,0,0-7-7Zm2.767,10.581a.61.61,0,0,1-.335-.114,6.522,6.522,0,0,0-3.387-.874,10.416,10.416,0,0,0-2.076.227l-.089.022a1.258,1.258,0,0,1-.259.047.518.518,0,0,1-.526-.522.53.53,0,0,1,.447-.559,11.166,11.166,0,0,1,2.507-.3,7.519,7.519,0,0,1,3.922,1.017.544.544,0,0,1,.315.531.521.521,0,0,1-.519.52Zm.726-2.037a.681.681,0,0,1-.368-.119,8.763,8.763,0,0,0-6.333-.79l-.1.029a.783.783,0,0,1-.255.049.625.625,0,0,1-.623-.627.634.634,0,0,1,.488-.655,9.262,9.262,0,0,1,2.651-.367,9.473,9.473,0,0,1,4.8,1.242.643.643,0,0,1,.354.613.624.624,0,0,1-.622.624Zm.824-2.323a.738.738,0,0,1-.394-.115A9.882,9.882,0,0,0,7.3,6.2a10.141,10.141,0,0,0-2.63.316l-.078.021a1.019,1.019,0,0,1-.29.054.753.753,0,0,1-.19-1.475A11.3,11.3,0,0,1,7.294,4.7,11.365,11.365,0,0,1,12.855,6a.739.739,0,0,1,.394.694.722.722,0,0,1-.732.728Z" transform="translate(-1.2 -1.2)" fill="#fff"/>
</svg>
