<svg xmlns="http://www.w3.org/2000/svg" width="48.002" height="48.002" viewBox="0 0 48.002 48.002">
  <g id="Group_84" data-name="Group 84" transform="translate(-526.999 -426.998)">
    <path id="Subtraction_2" data-name="Subtraction 2" d="M-11329-14475a23.862,23.862,0,0,1-9.343-1.886,23.919,23.919,0,0,1-7.629-5.144,23.93,23.93,0,0,1-5.144-7.629A23.862,23.862,0,0,1-11353-14499a23.86,23.86,0,0,1,1.886-9.341,23.945,23.945,0,0,1,5.144-7.63,23.919,23.919,0,0,1,7.629-5.144A23.846,23.846,0,0,1-11329-14523a23.841,23.841,0,0,1,9.342,1.887,23.923,23.923,0,0,1,7.63,5.144,23.945,23.945,0,0,1,5.144,7.63A23.86,23.86,0,0,1-11305-14499a23.862,23.862,0,0,1-1.886,9.343,23.919,23.919,0,0,1-5.144,7.629,23.923,23.923,0,0,1-7.63,5.144A23.861,23.861,0,0,1-11329-14475Zm-4.574-32a1.413,1.413,0,0,0-1.426,1.4v14.2a1.412,1.412,0,0,0,1.426,1.4,1.4,1.4,0,0,0,.725-.2l12.156-7.1a1.379,1.379,0,0,0,.694-1.2,1.376,1.376,0,0,0-.694-1.2l-12.156-7.1A1.442,1.442,0,0,0-11333.574-14507Z" transform="translate(11880 14950)" fill="#fff"/>
  </g>
</svg>
